<?xml version="1.0" standalone="no"?>
<!DOCTYPE svg PUBLIC "-//W3C//DTD SVG 20010904//EN"
 "http://www.w3.org/TR/2001/REC-SVG-20010904/DTD/svg10.dtd">
<svg version="1.0" xmlns="http://www.w3.org/2000/svg"
 width="200.000000pt" height="200.000000pt" viewBox="0 0 200.000000 200.000000"
 preserveAspectRatio="xMidYMid meet">
<metadata>
Created by potrace 1.11, written by Peter Selinger 2001-2013
</metadata>
<g transform="translate(0.000000,200.000000) scale(0.100000,-0.100000)"
fill="#000000" stroke="none">
<path d="M275 1688 c3 -34 7 -76 10 -93 4 -23 70 -94 287 -307 l281 -278 -44
-47 c-96 -105 -143 -153 -150 -153 -8 0 -34 67 -43 113 -6 26 -9 27 -66 27
-32 0 -61 -4 -64 -8 -9 -15 20 -117 51 -179 30 -60 30 -62 12 -79 -10 -9 -58
-63 -106 -120 -48 -57 -96 -104 -105 -104 -9 0 -30 -12 -47 -26 -55 -46 -50
-126 10 -163 54 -33 119 -7 147 58 9 20 36 53 61 74 44 35 71 58 154 134 l38
35 37 -23 c40 -23 158 -65 182 -64 12 0 15 14 15 64 l0 64 -45 11 c-25 7 -58
19 -73 27 l-29 15 57 55 c32 30 78 75 105 100 l47 46 103 -98 104 -98 -35 -15
c-19 -7 -49 -17 -66 -21 -42 -8 -48 -19 -49 -82 -1 -43 2 -53 15 -53 37 1 109
23 168 52 62 31 63 31 80 12 20 -21 78 -73 166 -148 31 -27 55 -51 53 -54 -9
-9 23 -59 48 -76 86 -56 187 34 140 125 -13 27 -54 59 -74 59 -14 0 -24 11
-70 70 -34 44 -68 83 -123 142 l-27 30 25 47 c29 53 67 170 59 183 -9 14 -124
10 -125 -4 -1 -27 -7 -47 -28 -94 l-22 -48 -94 99 c-52 55 -94 104 -95 110 0
5 37 45 82 88 383 365 488 472 493 501 2 17 7 53 10 80 3 27 7 54 8 60 2 12
-43 13 -133 3 -55 -6 -55 -7 -175 -131 -66 -68 -191 -197 -278 -287 l-158
-162 -101 104 c-85 89 -248 260 -404 425 -35 36 -49 44 -90 49 -27 3 -68 8
-92 11 l-43 6 6 -64z"/>
</g>
</svg>
